<?xml version="1.0" encoding="utf-8"?>
<!-- Generator: Adobe Illustrator 21.0.2, SVG Export Plug-In . SVG Version: 6.00 Build 0)  -->
<svg version="1.1" id="Layer_1" xmlns="http://www.w3.org/2000/svg" xmlns:xlink="http://www.w3.org/1999/xlink" x="0px" y="0px"
	 viewBox="0 0 38.3 40" style="enable-background:new 0 0 38.3 40;" xml:space="preserve">
<style type="text/css">
	.st0{fill:#665CA7;}
</style>
<g>
	<g>
		<path class="st0" d="M33.5,4.2c-1-0.9-4.9-3.7-13.7-3.8c0,0-10.3-0.6-15.4,4c-2.8,2.8-3.8,6.9-3.9,12C0.6,21.5,0.4,31,9.6,33.6
			c0,0,0,0,0,0l0,3.9c0,0-0.1,1.6,1,1.9c1.3,0.4,2-0.8,3.2-2.1c0.7-0.7,1.6-1.8,2.3-2.6c6.3,0.5,11.1-0.7,11.7-0.9
			c1.3-0.4,8.4-1.3,9.6-10.9C38.6,13.3,36.8,7.1,33.5,4.2z M34.6,22.4c-1,8-6.8,8.5-7.9,8.8c-0.5,0.1-4.7,1.2-10,0.9
			c0,0-4,4.8-5.2,6c-0.2,0.2-0.4,0.3-0.6,0.2c-0.2-0.1-0.3-0.3-0.3-0.7c0-0.5,0-6.5,0-6.5c0,0,0,0,0,0c-7.8-2.2-7.3-10.3-7.2-14.5
			c0.1-4.2,0.9-7.7,3.3-10.1c4.3-3.9,13-3.3,13-3.3c7.4,0,11,2.3,11.8,3C34.2,8.6,35.6,14.2,34.6,22.4z"/>
	</g>
	<g>
		<path class="st0" d="M23.5,16.7c-0.3,0-0.5-0.2-0.5-0.5c-0.1-1.7-0.9-2.5-2.5-2.6c-0.3,0-0.5-0.2-0.5-0.5c0-0.3,0.2-0.5,0.5-0.5
			c2.1,0.1,3.3,1.3,3.4,3.5C24,16.5,23.8,16.7,23.5,16.7C23.5,16.7,23.5,16.7,23.5,16.7z"/>
	</g>
	<g>
		<path class="st0" d="M26,17.6C26,17.6,26,17.6,26,17.6c-0.3,0-0.5-0.2-0.5-0.5c0-1.7-0.4-3.1-1.5-4.2c-1-1.1-2.4-1.7-4.3-1.9
			c-0.3,0-0.5-0.3-0.5-0.5c0-0.3,0.3-0.5,0.5-0.5c2.1,0.2,3.8,0.9,5,2.2c1.2,1.3,1.8,2.9,1.7,4.9C26.5,17.3,26.3,17.6,26,17.6z"/>
	</g>
	<g>
		<path class="st0" d="M28.6,18.6c-0.3,0-0.5-0.2-0.5-0.5c0-3-0.9-5.3-2.7-7.1c-1.7-1.7-4-2.6-6.6-2.6c-0.3,0-0.5-0.2-0.5-0.5
			c0-0.3,0.2-0.5,0.5-0.5c0,0,0,0,0,0c2.9,0,5.3,1,7.2,2.9c1.9,1.9,2.9,4.5,3,7.8C29.1,18.4,28.9,18.6,28.6,18.6
			C28.6,18.6,28.6,18.6,28.6,18.6z"/>
	</g>
	<g>
		<path class="st0" d="M20.6,22.8c0,0,0.7,0.1,1.1-0.4l0.7-0.9c0.4-0.5,1.2-0.7,2-0.3c0.5,0.3,1.3,0.8,1.8,1.2
			c0.6,0.4,1.7,1.3,1.7,1.4c0.5,0.5,0.7,1.1,0.3,1.8c0,0,0,0,0,0c-0.4,0.7-0.9,1.3-1.5,1.9c0,0,0,0,0,0c-0.5,0.4-1,0.7-1.5,0.7
			c-0.1,0-0.1,0-0.2,0c-0.2,0-0.4,0-0.7-0.1l0,0c-0.8-0.2-2.1-0.8-4.2-2c-1.4-0.8-2.6-1.6-3.6-2.4c-0.5-0.4-1.1-0.9-1.6-1.4
			c0,0,0,0-0.1-0.1c0,0,0,0-0.1-0.1l0,0c0,0,0,0,0,0c0,0,0,0-0.1-0.1c0,0,0,0-0.1-0.1c-0.5-0.5-1-1.1-1.4-1.6
			c-0.8-1-1.6-2.2-2.4-3.6c-1.2-2.2-1.7-3.5-2-4.2l0,0c-0.1-0.2-0.1-0.4-0.1-0.7c0-0.1,0-0.2,0-0.2c0.1-0.5,0.3-1,0.7-1.5
			c0,0,0,0,0,0c0.6-0.6,1.2-1.1,1.9-1.5c0,0,0,0,0,0c0.7-0.4,1.4-0.2,1.8,0.3c0,0,0.9,1.1,1.4,1.7c0.4,0.5,0.9,1.4,1.2,1.8
			c0.5,0.8,0.2,1.7-0.3,2l-0.9,0.7c-0.5,0.4-0.4,1.1-0.4,1.1S15.6,21.5,20.6,22.8z"/>
	</g>
</g>
</svg>
