<svg xmlns="http://www.w3.org/2000/svg" viewBox="0 0 397 603"><title>индивидуальный</title><g id="Слой_2" data-name="Слой 2"><g id="Слой_1-2" data-name="Слой 1"><rect width="397" height="603" rx="12" ry="12" style="fill:#dbdbdb"/><path d="M87,458h0c-1.08,1.08-19.39,16.91-30.49,25.86A7.44,7.44,0,0,0,57,495.84,254.75,254.75,0,0,0,200.79,540a257.33,257.33,0,0,0,31.35-1.91,14,14,0,0,0,10.24-21.3c-7.18-11.54-13.63-28.93-10.36-52L241.79,442s18.65-2,30.13.88,21.35,2.86,27.73-11.16-.95-33-.95-33,.81-.31,2.08-4.13,2.89-3.27,10.22-3.59,7.72,0,9-7-3.21-9-3.21-9a122.1,122.1,0,0,0,11.75-8.09c5.16-4.13,3.6-11,.46-12.91s.48-11.39.48-11.39,18.76-2.37,21.31-11.61-20-39.39-27.68-59.15,8.08-40.54,7.68-51.85S311,131.57,224.92,108.63,54.05,138.61,46.4,222.76,107,372.57,107,372.57L87,458Z" style="fill:#c4223d"/><ellipse cx="185" cy="227" rx="97" ry="101" style="fill:#f7f2b7"/><path d="M276.21,441.13c-14.81-5-92.32-27.76-102.3-36.49s-19.33-23.08-19.33-23.08,6.7,19.8,16.06,27,54,18.09,56.76,29.63-12.91,34.78,8.4,65.19h0A78.33,78.33,0,0,1,232,464.74l6.1-31.11s22.32,6.37,33.8,9.25c10.28,2.57,19.28,2.83,25.63-7.23C296.92,436.59,290.28,445.86,276.21,441.13Z" style="fill:#ce4552"/><path d="M246.08,115.73h0a173.07,173.07,0,0,0-21.16-7.09c-86.07-23-170.87,30-178.52,114.13S107,372.57,107,372.57L87,458l27-89.26C33.89,278.4,44.59,193,90.48,146.07c38.51-39.39,102-50,155.6-30.34Z" style="fill:#ce4552"/><path d="M185.14,150.34c27.89,0,50.5,23.11,50.5,51.61A51.83,51.83,0,0,1,212,245.69a10.11,10.11,0,0,0-4.56,8.52v16.36a5.09,5.09,0,0,1-5,5.13h-37a5.08,5.08,0,0,1-5-5.13V252.42a10.25,10.25,0,0,0-4.29-8.29A51.86,51.86,0,0,1,134.65,202c0-28.5,22.61-51.61,50.5-51.61Z" style="fill:#fff"/><path d="M204.63,278.17a2.85,2.85,0,0,1-1.19,2.22,1.14,1.14,0,0,0,0,1.84,2.68,2.68,0,0,1,0,4.45,1.15,1.15,0,0,0,0,1.85,2.84,2.84,0,0,1,1.19,2.22h0c0,1.73-1.82,3.14-4,3.14H169.71c-2.22,0-4-1.41-4-3.14h0a2.81,2.81,0,0,1,1.19-2.22,1.15,1.15,0,0,0,0-1.85,2.67,2.67,0,0,1,0-4.44,1.15,1.15,0,0,0,0-1.85,2.83,2.83,0,0,1-1.19-2.22c0-1.73,1.82-3.15,4-3.15h30.88C202.81,275,204.63,276.44,204.63,278.17Z" style="fill:#232323"/><path d="M199.05,200.67h0l1.84.28a1.13,1.13,0,0,1,.94,1.25l-8.07,65.66-.17,1.44H176.71l-.18-1.44-8.06-65.66a1.12,1.12,0,0,1,.94-1.25l.69-.11a1.13,1.13,0,0,1,1.29,1L179.15,265a1.12,1.12,0,0,0,1.12,1H190a1.12,1.12,0,0,0,1.12-1l7.9-64.32Z" style="fill:#fbb429"/><path d="M180.36,192.35h0L203,201.27a1.12,1.12,0,0,1-.62,2.15l-11.08-2.1a1.13,1.13,0,0,0-1.32,1.26l.89,6.55a1.12,1.12,0,0,1-1.54,1.19l-27-11.27a1.12,1.12,0,0,1,.6-2.15l17,2.54a1.13,1.13,0,0,0,1.28-1.28l-.85-5.81Z" style="fill:#fbb429"/><path d="M187.54,307.1h-4.72V308h-3.06v-.93h-1.23a3,3,0,0,1-2.66-1.79h-.09a3.06,3.06,0,0,1-2.94-3.17,3.21,3.21,0,0,1,1.34-2.64h-4.51a3.17,3.17,0,0,1,0-6.33h31a3.17,3.17,0,0,1,0,6.33h-4.52a3.19,3.19,0,0,1,1.34,2.64,3.06,3.06,0,0,1-2.94,3.17h-.09a3,3,0,0,1-2.66,1.79H190.6V308h-3.06v-.93Z" style="fill:#fff"/></g></g></svg>