<?xml version="1.0" encoding="utf-8"?>
<!-- Generator: Adobe Illustrator 22.0.1, SVG Export Plug-In . SVG Version: 6.00 Build 0)  -->
<svg version="1.1" id="Слой_1" xmlns="http://www.w3.org/2000/svg" xmlns:xlink="http://www.w3.org/1999/xlink" x="0px" y="0px"
	 viewBox="0 0 83.1 81" style="enable-background:new 0 0 83.1 81;" xml:space="preserve">
<style type="text/css">
	.st0{fill:none;stroke:#FCFCFA;stroke-width:3;stroke-linecap:round;stroke-linejoin:round;stroke-miterlimit:10;}
	.st1{fill:#FCFCFA;}
</style>
<polygon class="st0" points="33.1,42.2 4.9,13.7 17.1,1.5 19.4,3.8 45.4,30 "/>
<path class="st1" d="M16.5,12.6L15,11c-0.2-0.2-0.2-0.5,0-0.7l5.1-5.1c0.2-0.2,0.5-0.2,0.7,0l1.6,1.6c0.2,0.2,0.2,0.5,0,0.7
	l-5.1,5.1C17,12.8,16.7,12.8,16.5,12.6z"/>
<path class="st1" d="M25.7,21.8l-1.6-1.6c-0.2-0.2-0.2-0.5,0-0.7l5.1-5.1c0.2-0.2,0.5-0.2,0.7,0l1.6,1.6c0.2,0.2,0.2,0.5,0,0.7
	l-5.1,5.1C26.2,22,25.9,22,25.7,21.8z"/>
<path class="st1" d="M34.8,31l-1.6-1.6c-0.2-0.2-0.2-0.5,0-0.7l5.1-5.1c0.2-0.2,0.5-0.2,0.7,0l1.6,1.6c0.2,0.2,0.2,0.5,0,0.7
	L35.5,31C35.3,31.2,35,31.2,34.8,31z"/>
<path class="st1" d="M18.8,19.1l-1.6-1.6c-0.2-0.2-0.2-0.5,0-0.7l7.2-7.1c0.2-0.2,0.5-0.2,0.7,0l1.6,1.6c0.2,0.2,0.2,0.5,0,0.7
	l-7.2,7.1C19.4,19.3,19,19.3,18.8,19.1z"/>
<path class="st1" d="M28.1,28.4l-1.6-1.6c-0.2-0.2-0.2-0.5,0-0.7l7.2-7.1c0.2-0.2,0.5-0.2,0.7,0l1.6,1.6c0.2,0.2,0.2,0.5,0,0.7
	l-7.2,7.1C28.7,28.6,28.4,28.6,28.1,28.4z"/>
<path class="st1" d="M37.1,37.5l-1.6-1.6c-0.2-0.2-0.2-0.5,0-0.7l7.2-7.1c0.2-0.2,0.5-0.2,0.7,0l1.6,1.6c0.2,0.2,0.2,0.5,0,0.7
	l-7.2,7.1C37.6,37.7,37.3,37.7,37.1,37.5z"/>
<polygon class="st0" points="69.3,79.2 43.2,52.7 55.6,40.6 57.7,42.7 81.6,67 "/>
<path class="st1" d="M54.2,51l-1.5-1.5c-0.2-0.2-0.2-0.5,0-0.7l5.1-5c0.2-0.2,0.5-0.2,0.7,0l1.5,1.5c0.2,0.2,0.2,0.5,0,0.7L55,51
	C54.8,51.2,54.5,51.2,54.2,51z"/>
<path class="st1" d="M63.3,60.2l-1.5-1.5c-0.2-0.2-0.2-0.5,0-0.7l5.1-5c0.2-0.2,0.5-0.2,0.7,0l1.5,1.5c0.2,0.2,0.2,0.5,0,0.7l-5.1,5
	C63.8,60.4,63.5,60.4,63.3,60.2z"/>
<path class="st1" d="M72.3,69.3l-1.5-1.5c-0.2-0.2-0.2-0.5,0-0.7l5.1-5c0.2-0.2,0.5-0.2,0.7,0l1.5,1.5c0.2,0.2,0.2,0.5,0,0.7l-5.1,5
	C72.8,69.5,72.5,69.5,72.3,69.3z"/>
<path class="st1" d="M56.5,57.4L55,55.9c-0.2-0.2-0.2-0.5,0-0.7l7.2-7.1c0.2-0.2,0.5-0.2,0.7,0l1.5,1.5c0.2,0.2,0.2,0.5,0,0.7
	l-7.2,7.1C57,57.6,56.7,57.6,56.5,57.4z"/>
<path class="st1" d="M65.7,66.7l-1.5-1.5c-0.2-0.2-0.2-0.5,0-0.7l7.2-7.1c0.2-0.2,0.5-0.2,0.7,0l1.5,1.5c0.2,0.2,0.2,0.5,0,0.7
	l-7.2,7.1C66.2,67,65.9,67,65.7,66.7z"/>
<rect x="-2.1" y="37" transform="matrix(0.7193 -0.6947 0.6947 0.7193 -17.6309 39.8982)" class="st0" width="85.4" height="9.6"/>
<polygon class="st0" points="6.5,68 1.5,79.5 13.2,74.9 "/>
<path class="st0" d="M74.6,15.6c0,0,3.6-10.2-6.7-6.9"/>
</svg>
