<?xml version="1.0" encoding="utf-8"?>
<!-- Generator: Adobe Illustrator 22.0.1, SVG Export Plug-In . SVG Version: 6.00 Build 0)  -->
<svg version="1.1" id="Слой_1" xmlns="http://www.w3.org/2000/svg" xmlns:xlink="http://www.w3.org/1999/xlink" x="0px" y="0px"
	 viewBox="0 0 86.3 86.3" style="enable-background:new 0 0 86.3 86.3;" xml:space="preserve">
<style type="text/css">
	.st0{fill:#FFFFFF;}
	.st1{fill:none;stroke:#FCFCFA;stroke-width:3;stroke-miterlimit:10;}
</style>
<path class="st0" d="M39.1,55.9c-0.1,0-0.2-0.1-0.2-0.2v-4.6c0-2.1,1-4.3,3-6.4l5.7-6.2c2.1-2.2,3.1-4.5,3.1-6.7
	c0-2.3-0.8-4.3-2.3-5.9c-1.5-1.6-3.4-2.4-5.7-2.4c-5.4,0-8.5,3-9.3,9c0,0,0,0,0,0v2c0,0.1-0.1,0.2-0.2,0.2h-5.6
	c-0.1,0-0.2-0.1-0.2-0.2v-3.8c0,0,0,0,0,0c0.5-4.1,2.2-7.2,5.1-9.4c2.6-2,6.1-2.9,10.3-2.9c4.4,0,7.8,1.1,10.4,3.2
	c2.7,2.3,4.1,5.6,4.1,9.9c0,3-1.1,5.9-3.2,8.7c0,0,0,0,0,0l-6,6.2c-2.2,2.3-3.3,4.3-3.3,6.2v3c0,0.1-0.1,0.2-0.2,0.2H39.1z"/>
<path class="st0" d="M45.2,62.7v5.5c0,0.5-0.4,0.8-0.8,0.8h-5c-0.5,0-0.8-0.4-0.8-0.8v-5.5c0-0.5,0.4-0.8,0.8-0.8h5
	C44.8,61.9,45.2,62.3,45.2,62.7z"/>
<circle class="st1" cx="43.1" cy="43.1" r="41.6"/>
</svg>
