<?xml version="1.0" encoding="utf-8"?>
<!-- Generator: Adobe Illustrator 22.0.1, SVG Export Plug-In . SVG Version: 6.00 Build 0)  -->
<svg version="1.1" id="Слой_1" xmlns="http://www.w3.org/2000/svg" xmlns:xlink="http://www.w3.org/1999/xlink" x="0px" y="0px"
	 viewBox="0 0 66.8 73.9" style="enable-background:new 0 0 66.8 73.9;" xml:space="preserve">
<style type="text/css">
	.st0{fill:none;stroke:#FFFFFF;stroke-width:3;stroke-miterlimit:10;}
	.st1{fill:#FFFFFF;}
</style>
<path class="st0" d="M51.8,65.8H3.2c-0.9,0-1.7-0.8-1.7-1.7v-61c0-0.9,0.8-1.7,1.7-1.7h48.6c0.9,0,1.7,0.8,1.7,1.7v61
	C53.5,65.1,52.7,65.8,51.8,65.8z"/>
<circle class="st0" cx="42.5" cy="48.6" r="19.8"/>
<rect x="13.3" y="14.4" class="st1" width="28.5" height="2.8"/>
<rect x="13.3" y="23.3" class="st1" width="28.5" height="2.8"/>
<rect x="13.3" y="32.2" class="st1" width="16.7" height="2.8"/>
<rect x="13.3" y="41.1" class="st1" width="10.4" height="2.8"/>
<rect x="13.3" y="50" class="st1" width="10.4" height="2.8"/>
<path class="st1" d="M28.2,44.7c0,0,1.2-4.9,1.7-4.9s18.8,0,18.8,0v4.9H28.2z"/>
<path class="st1" d="M27.5,51.5h21.7v5.1H29.6C29.6,56.6,27.4,53.1,27.5,51.5z"/>
<polygon class="st1" points="55.4,64.7 64.8,73.9 66.8,71.8 57.9,62.5 "/>
</svg>
