<svg xmlns="http://www.w3.org/2000/svg" viewBox="0 0 397 603"><title>интернет магазин</title><g id="Слой_2" data-name="Слой 2"><g id="Слой_1-2" data-name="Слой 1"><rect width="397" height="603" rx="12" ry="12" style="fill:#dbdbdb"/><rect x="12" y="84" width="372" height="180" rx="32.53" ry="32.53" style="fill:none;stroke:#282828;stroke-miterlimit:10"/><rect x="17" y="278" width="372" height="180" rx="32.53" ry="32.53" style="fill:#9b9b9b"/><rect x="17" y="471" width="366" height="112" rx="20.92" ry="20.92" style="fill:#f4f4f4"/><circle cx="365.5" cy="35.5" r="12.5" style="fill:#282828"/><circle cx="332.5" cy="35.5" r="12.5" style="fill:#282828"/><circle cx="295.5" cy="35.5" r="12.5" style="fill:#282828"/><rect x="247.89" y="175.83" width="12.82" height="48.17" rx="2.49" ry="2.49" style="fill:#282828"/><rect x="267.12" y="165.86" width="12.82" height="58.14" rx="2.25" ry="2.25" style="fill:#282828"/><rect x="288.91" y="154.79" width="12.82" height="69.21" rx="2.59" ry="2.59" style="fill:#282828"/><rect x="196" y="116" width="4" height="108" style="fill:#bc503b"/><rect x="311.34" y="143.16" width="12.82" height="80.84" rx="2.88" ry="2.88" style="fill:#282828"/><path d="M243.76,168.25l-3.14-4.71a2.92,2.92,0,0,1,1.12-4.23l75.78-37.8a2.92,2.92,0,0,1,3.72,1l3.15,4.71a2.92,2.92,0,0,1-1.12,4.22l-75.79,37.8A2.9,2.9,0,0,1,243.76,168.25Z" style="fill:#f20000"/><ellipse cx="85.43" cy="379.06" rx="52.43" ry="52.06" style="fill:#e80000"/><path d="M340.08,117.83l-27.27-3.23a.92.92,0,0,0-.9,1.4l14.93,24.48a.92.92,0,0,0,1.58,0l12.35-21.25A.92.92,0,0,0,340.08,117.83Z" style="fill:#f20000"/><circle cx="223.5" cy="347.5" r="10.5" style="fill:#e20000"/><circle cx="185.5" cy="347.5" r="10.5" style="fill:#e20000"/><circle cx="258.5" cy="347.5" r="10.5" style="fill:#e20000"/><path d="M88.17,370.55,85.1,438c.5,0,1,0,1.48,0A64.9,64.9,0,0,0,143,405.35Z" style="fill:#303030"/><rect x="37" y="495" width="83" height="54" rx="12" ry="12" style="fill:#d1d1d1"/><path d="M114.21,496.76l-34.71,20L43.82,496.2a12.08,12.08,0,0,0-5.76,5.91l38.48,22.21a4.36,4.36,0,0,0,5.92,0l36.85-21.27A12.07,12.07,0,0,0,114.21,496.76Z" style="fill:#4c4c4c"/><rect x="283" y="336" width="95" height="23" rx="11.5" ry="11.5" style="fill:#e20000"/><rect x="35" y="114" width="137" height="3" style="fill:#333"/><rect x="35" y="121" width="137" height="3" style="fill:#333"/><rect x="32" y="33" width="137" height="3" style="fill:#333"/><rect x="32" y="40" width="137" height="3" style="fill:#333"/><rect x="35" y="128" width="137" height="3" style="fill:#333"/><rect x="35" y="136" width="137" height="3" style="fill:#333"/><rect x="35" y="144" width="137" height="3" style="fill:#333"/><rect x="35" y="153" width="137" height="3" style="fill:#333"/><rect x="35" y="162" width="137" height="3" style="fill:#333"/><rect x="35" y="171" width="137" height="3" style="fill:#333"/><rect x="35" y="180" width="137" height="3" style="fill:#333"/><rect x="35" y="188" width="137" height="3" style="fill:#333"/><rect x="35" y="197" width="137" height="3" style="fill:#333"/><rect x="35" y="204" width="137" height="3" style="fill:#333"/><rect x="35" y="211" width="137" height="3" style="fill:#333"/><rect x="35" y="218" width="137" height="3" style="fill:#333"/><rect x="201" y="491" width="137" height="3" style="fill:#333"/><rect x="201" y="500" width="137" height="3" style="fill:#333"/><rect x="201" y="509" width="137" height="3" style="fill:#333"/><rect x="201" y="517" width="137" height="3" style="fill:#333"/><rect x="201" y="526" width="137" height="3" style="fill:#333"/><rect x="201" y="533" width="137" height="3" style="fill:#333"/><rect x="201" y="540" width="137" height="3" style="fill:#333"/><rect x="201" y="547" width="137" height="3" style="fill:#333"/><rect x="175" y="365" width="203" height="3" style="fill:#333"/><rect x="175" y="374" width="203" height="3" style="fill:#333"/><rect x="175" y="383" width="203" height="3" style="fill:#333"/><rect x="175" y="391" width="203" height="3" style="fill:#333"/><rect x="175" y="400" width="203" height="3" style="fill:#333"/><rect x="175" y="407" width="203" height="3" style="fill:#333"/><rect x="175" y="414" width="203" height="3" style="fill:#333"/><rect x="175" y="421" width="203" height="3" style="fill:#333"/></g></g></svg>