<svg xmlns="http://www.w3.org/2000/svg" viewBox="0 0 403.42 603"><title>интернет магазин_1</title><g id="Слой_2" data-name="Слой 2"><g id="Слой_1-2" data-name="Слой 1"><rect width="397" height="603" rx="12" ry="12" style="fill:#dbdbdb"/><rect x="314" y="20" width="69" height="27" rx="12" ry="12" style="fill:#fff"/><rect x="26.7" y="33.19" width="17" height="4" rx="2" ry="2" transform="translate(20.95 -12.5) rotate(28.38)" style="fill:#6d6d6d"/><rect x="24" y="99" width="360" height="323" rx="8.7" ry="8.7" style="fill:#ededed"/><circle cx="29.48" cy="32.1" r="7" style="fill:#6d6d6d"/><ellipse cx="29.02" cy="32" rx="4.98" ry="5" style="fill:#afafaf"/><rect x="58.5" y="24.5" width="88" height="22" rx="8.5" ry="8.5" style="fill:#fff;stroke:#f40808;stroke-miterlimit:10"/><path d="M372.86,28.54l.14-2a3.29,3.29,0,0,0-3-3.5H358a3.29,3.29,0,0,0-3,3.5l.14,2h0L356,41.38h0c.08,1.59.51,2.62,2,2.62h12c1.56,0,2-1.15,2-2.91h0l.61-9,.12-1.75h0l.12-1.75Zm-9.36,5.54V32.33h2v1.75Zm2,1.46v1.75h-2V35.54Zm-2-5.25V28.54h2v1.75Zm-1,0h-2V28.54h2Zm0,2v1.75h-2V32.33Zm-3,1.75h-2.69l-.16-1.75h2.85Zm0,1.46v1.75h-2.4l-.16-1.75Zm1,0h2v1.75h-2Zm2,3.79v1.75h-2V39.33Zm1,0h2v1.75h-2Zm3,0h2v1.75h-2Zm0-2V35.54h2v1.75Zm3-1.75h1.66l-.11,1.75H369.5Zm0-1.46V32.33h1.86l-.11,1.75Zm-1,0h-2V32.33h2Zm-2-3.79V28.54h2v1.75Zm-7-1.75v1.75h-3l-.16-1.75Zm-2.05,12.54-.16-1.75h2.21v1.75Zm12.05,0V39.33h1.42l-.11,1.75Zm2-10.79h-2V28.54h2.1Z" style="fill:#939393"/><text></text><rect x="23.5" y="460.5" width="112" height="136" rx="12" ry="12" style="fill:#fff;stroke:#f7f7f7;stroke-miterlimit:10"/><rect x="52" y="488" width="51" height="52" rx="8.71" ry="8.71" transform="translate(591.5 436.5) rotate(90)" style="fill:#c44747"/><path d="M49.5,111H97.19a9,9,0,0,1,9,9v67.21a12,12,0,0,1-12,12H52.5a12,12,0,0,1-12-12V120A9,9,0,0,1,49.5,111Z" style="fill:#fff;stroke:#f7f7f7;stroke-miterlimit:10"/><path d="M69.53,166.87,55.6,151.46a6.06,6.06,0,0,1,0-8l14.34-15.87a4.77,4.77,0,0,1,7.22,0L91.09,143a6.06,6.06,0,0,1,0,8L76.75,166.87A4.77,4.77,0,0,1,69.53,166.87Z" style="fill:#d61313"/><path d="M136.64,111h47.69a9,9,0,0,1,9,9v67.21a12,12,0,0,1-12,12H139.64a12,12,0,0,1-12-12V120a9,9,0,0,1,9-9Z" style="fill:#fff;stroke:#f7f7f7;stroke-miterlimit:10"/><rect x="143.36" y="127.45" width="33.08" height="30.5" rx="8.71" ry="8.71" transform="translate(302.6 -17.2) rotate(90)" style="fill:#c44747"/><path d="M224.37,111h47.69a9,9,0,0,1,9,9v64.21a15,15,0,0,1-15,15H227.37a12,12,0,0,1-12-12V120A9,9,0,0,1,224.37,111Z" style="fill:#fff;stroke:#f7f7f7;stroke-miterlimit:10"/><rect x="232.27" y="127.45" width="33.08" height="30.5" rx="12.48" ry="12.48" transform="translate(391.51 -106.11) rotate(90)" style="fill:#c6b6b6"/><path d="M311.93,111h41.69a12,12,0,0,1,12,12v61.21a15,15,0,0,1-15,15H311.93a12,12,0,0,1-12-12V123A12,12,0,0,1,311.93,111Z" style="fill:#fff;stroke:#f7f7f7;stroke-miterlimit:10"/><path d="M329,166.87,315,151.46a6.08,6.08,0,0,1,0-8l14.34-15.87a4.79,4.79,0,0,1,7.23,0L350.53,143a6.08,6.08,0,0,1,0,8l-14.35,15.87A4.77,4.77,0,0,1,329,166.87Z" style="fill:#9e9d9d"/><path d="M49.5,216H94.19a12,12,0,0,1,12,12v64.21a12,12,0,0,1-12,12H52.5a12,12,0,0,1-12-12V225A9,9,0,0,1,49.5,216Z" style="fill:#fff;stroke:#f7f7f7;stroke-miterlimit:10"/><path d="M64,269.89l-8.82-18.8a6.09,6.09,0,0,1,2.33-7.64l18.36-11a4.77,4.77,0,0,1,6.91,2.11l8.81,18.8A6.08,6.08,0,0,1,89.22,261L70.86,272A4.75,4.75,0,0,1,64,269.89Z" style="fill:#890000"/><path d="M136.64,216h44.69a12,12,0,0,1,12,12v64.21a12,12,0,0,1-12,12H139.64a12,12,0,0,1-12-12V225A9,9,0,0,1,136.64,216Z" style="fill:#f9e1e1;stroke:red;stroke-miterlimit:10"/><rect x="143.36" y="232.45" width="33.08" height="30.5" rx="8.71" ry="8.71" transform="translate(407.6 87.8) rotate(90)" style="fill:#c44747"/><path d="M224.37,216h44.69a12,12,0,0,1,12,12v61.21a15,15,0,0,1-15,15H227.37a12,12,0,0,1-12-12V225A9,9,0,0,1,224.37,216Z" style="fill:#fff;stroke:#f7f7f7;stroke-miterlimit:10"/><rect x="232.27" y="232.45" width="33.08" height="30.5" transform="translate(496.51 -1.11) rotate(90)" style="fill:#5e1f1f"/><path d="M311.93,216h44.69a9,9,0,0,1,9,9v64.21a15,15,0,0,1-15,15H311.93a12,12,0,0,1-12-12V228A12,12,0,0,1,311.93,216Z" style="fill:#fff;stroke:#f7f7f7;stroke-miterlimit:10"/><path d="M329,271.87,315,256.46a6.08,6.08,0,0,1,0-8l14.34-15.87a4.79,4.79,0,0,1,7.23,0L350.53,248a6.08,6.08,0,0,1,0,8l-14.35,15.87A4.77,4.77,0,0,1,329,271.87Z" style="fill:#a0526a"/><path d="M50.5,321H95.19a12,12,0,0,1,12,12v64.21a12,12,0,0,1-12,12H53.5a12,12,0,0,1-12-12V330A9,9,0,0,1,50.5,321Z" style="fill:#fff;stroke:#f7f7f7;stroke-miterlimit:10"/><path d="M70.53,376.87,56.6,361.46a6.06,6.06,0,0,1,0-8l14.34-15.87a4.77,4.77,0,0,1,7.22,0L92.09,353a6.06,6.06,0,0,1,0,8L77.75,376.87A4.77,4.77,0,0,1,70.53,376.87Z" style="fill:#dbdbdb"/><path d="M137.64,321h44.69a12,12,0,0,1,12,12v64.21a12,12,0,0,1-12,12H140.64a12,12,0,0,1-12-12V330A9,9,0,0,1,137.64,321Z" style="fill:#fff;stroke:#f7f7f7;stroke-miterlimit:10"/><rect x="144.36" y="337.45" width="33.08" height="30.5" rx="8.71" ry="8.71" transform="translate(513.6 191.8) rotate(90)" style="fill:#c44747"/><path d="M228.37,321h44.69a9,9,0,0,1,9,9v64.21a15,15,0,0,1-15,15H228.37a12,12,0,0,1-12-12V333A12,12,0,0,1,228.37,321Z" style="fill:#fff;stroke:#f7f7f7;stroke-miterlimit:10"/><rect x="233.27" y="337.45" width="33.08" height="30.5" rx="12.48" ry="12.48" transform="translate(602.51 102.89) rotate(90)" style="fill:#4c3b3b"/><path d="M309.93,321h44.69a12,12,0,0,1,12,12v61.21a15,15,0,0,1-15,15H312.93a12,12,0,0,1-12-12V330A9,9,0,0,1,309.93,321Z" style="fill:#fff;stroke:#f7f7f7;stroke-miterlimit:10"/><path d="M330,376.87,316,361.46a6.08,6.08,0,0,1,0-8l14.34-15.87a4.79,4.79,0,0,1,7.23,0L351.53,353a6.08,6.08,0,0,1,0,8l-14.35,15.87A4.77,4.77,0,0,1,330,376.87Z" style="fill:#dbdbdb"/><rect x="22" y="65" width="360" height="26" rx="9.5" ry="9.5" style="fill:#e5e5e5"/><rect x="22.5" y="440.5" width="359" height="13" style="fill:#f90000;stroke:#f7f7f7;stroke-miterlimit:10"/><rect x="147" y="460" width="235" height="105" rx="12" ry="12" style="fill:#fff"/><path d="M208.3,519a13.76,13.76,0,0,1-.66,4.39,11.82,11.82,0,0,1-1.85,3.48,11.62,11.62,0,0,1-2.81,2.6,16.38,16.38,0,0,1-3.6,1.8,22.94,22.94,0,0,1-4.21,1,34,34,0,0,1-5,.34H178.11a2.88,2.88,0,0,1-2-.69,2.84,2.84,0,0,1-.79-2.23V490.08a2.84,2.84,0,0,1,.79-2.23,2.88,2.88,0,0,1,2-.69h11.42a30.53,30.53,0,0,1,7.09.71A13.9,13.9,0,0,1,201.5,490a9.31,9.31,0,0,1,3,3.61,11.55,11.55,0,0,1,1.06,5.13,11.18,11.18,0,0,1-.42,3.11A10,10,0,0,1,204,504.5a9.46,9.46,0,0,1-2,2.11,10.25,10.25,0,0,1-2.69,1.47,12.36,12.36,0,0,1,3.57,1.23,10.13,10.13,0,0,1,2.85,2.27,10.81,10.81,0,0,1,1.91,3.25A11.77,11.77,0,0,1,208.3,519Zm-12-19.16a6.84,6.84,0,0,0-.42-2.47,4.41,4.41,0,0,0-1.27-1.81,5.68,5.68,0,0,0-2.12-1.1,12.2,12.2,0,0,0-3.43-.39h-4.68V505.9h5.17a9,9,0,0,0,3.2-.47,5.59,5.59,0,0,0,2-1.3,5.26,5.26,0,0,0,1.17-1.94A6.91,6.91,0,0,0,196.35,499.86Zm2.36,19.47a7.25,7.25,0,0,0-.53-2.83,5.38,5.38,0,0,0-1.55-2.09,7.05,7.05,0,0,0-2.6-1.3,14.93,14.93,0,0,0-4.11-.46h-5.49v12.94h6.68a11.29,11.29,0,0,0,3.26-.4,6.62,6.62,0,0,0,2.28-1.2,5.47,5.47,0,0,0,1.51-2A6.22,6.22,0,0,0,198.71,519.33Z" style="fill:red"/><path d="M252.85,515.71a21.35,21.35,0,0,1-1.23,7.49,14.74,14.74,0,0,1-3.62,5.59,15.92,15.92,0,0,1-5.91,3.48,25,25,0,0,1-8.09,1.19,25.5,25.5,0,0,1-7.7-1.07,14.92,14.92,0,0,1-5.76-3.25,14.13,14.13,0,0,1-3.6-5.43,21,21,0,0,1-1.25-7.61V488.43a1,1,0,0,1,.21-.63,1.49,1.49,0,0,1,.75-.46,7.68,7.68,0,0,1,1.43-.28,19.32,19.32,0,0,1,2.25-.11,18.94,18.94,0,0,1,2.21.11,7.11,7.11,0,0,1,1.41.28,1.67,1.67,0,0,1,.76.46,1,1,0,0,1,.22.63v26.86a14.89,14.89,0,0,0,.67,4.69,8.73,8.73,0,0,0,1.92,3.29,7.84,7.84,0,0,0,3,2,11.08,11.08,0,0,0,3.88.65,10.63,10.63,0,0,0,3.9-.67,7.66,7.66,0,0,0,2.92-2,8.8,8.8,0,0,0,1.85-3.16,13.16,13.16,0,0,0,.65-4.27V488.43a1,1,0,0,1,.21-.63,1.45,1.45,0,0,1,.74-.46,7.08,7.08,0,0,1,1.42-.28,19.57,19.57,0,0,1,2.23-.11,18.63,18.63,0,0,1,2.2.11,7.18,7.18,0,0,1,1.39.28,1.5,1.5,0,0,1,.74.46,1,1,0,0,1,.21.63Z" style="fill:red"/><path d="M281.11,515.39v16a.91.91,0,0,1-.23.63,1.58,1.58,0,0,1-.75.46,7.23,7.23,0,0,1-1.42.28,23,23,0,0,1-4.49,0,7.55,7.55,0,0,1-1.42-.28A1.52,1.52,0,0,1,272,532a1,1,0,0,1-.21-.63v-16l-12.44-24.78a10.38,10.38,0,0,1-.86-2,1,1,0,0,1,.21-1.09,2.53,2.53,0,0,1,1.49-.46c.73-.06,1.73-.09,3-.09,1.08,0,1.94,0,2.59.07a6.43,6.43,0,0,1,1.53.27,1.81,1.81,0,0,1,.82.51,3.77,3.77,0,0,1,.51.81l5.07,11.18c.49,1.07,1,2.21,1.45,3.41s1,2.44,1.46,3.76h.07q.67-1.9,1.38-3.69c.46-1.2.92-2.34,1.37-3.41l5-11.11a2.7,2.7,0,0,1,.44-.9,1.94,1.94,0,0,1,.79-.55,5.15,5.15,0,0,1,1.44-.28c.61,0,1.42-.07,2.43-.07,1.33,0,2.37,0,3.11.09a2.58,2.58,0,0,1,1.51.46,1,1,0,0,1,.19,1.11,12.53,12.53,0,0,1-.84,2Z" style="fill:red"/><path d="M354.9,509.54l-22.49,21.19a1.43,1.43,0,0,1-2.41-1V487.31a1.43,1.43,0,0,1,2.41-1l22.49,21.19A1.43,1.43,0,0,1,354.9,509.54Z" style="fill:red"/><rect x="371" y="103" width="9" height="311" rx="4.5" ry="4.5" style="fill:#fcfcfc"/><rect x="371" y="113" width="9" height="20" rx="4.5" ry="4.5" style="fill:#efb9b9"/><rect x="51" y="175" width="47" height="1" style="fill:#606060"/><rect x="51" y="179" width="47" height="1" style="fill:#606060"/><rect x="51" y="183" width="47" height="1" style="fill:#606060"/><rect x="136" y="176" width="47" height="1" style="fill:#606060"/><rect x="136" y="180" width="47" height="1" style="fill:#606060"/><rect x="136" y="184" width="47" height="1" style="fill:#606060"/><rect x="225" y="176" width="47" height="1" style="fill:#606060"/><rect x="225" y="180" width="47" height="1" style="fill:#606060"/><rect x="225" y="184" width="47" height="1" style="fill:#606060"/><rect x="308" y="177" width="47" height="1" style="fill:#606060"/><rect x="308" y="181" width="47" height="1" style="fill:#606060"/><rect x="308" y="185" width="47" height="1" style="fill:#606060"/><rect x="52" y="279" width="47" height="1" style="fill:#606060"/><rect x="52" y="283" width="47" height="1" style="fill:#606060"/><rect x="52" y="287" width="47" height="1" style="fill:#606060"/><rect x="137" y="280" width="47" height="1" style="fill:#606060"/><rect x="137" y="284" width="47" height="1" style="fill:#606060"/><rect x="137" y="288" width="47" height="1" style="fill:#606060"/><rect x="226" y="280" width="47" height="1" style="fill:#606060"/><rect x="226" y="284" width="47" height="1" style="fill:#606060"/><rect x="226" y="288" width="47" height="1" style="fill:#606060"/><rect x="309" y="281" width="47" height="1" style="fill:#606060"/><rect x="309" y="285" width="47" height="1" style="fill:#606060"/><rect x="309" y="289" width="47" height="1" style="fill:#606060"/><rect x="52" y="386" width="47" height="1" style="fill:#606060"/><rect x="52" y="390" width="47" height="1" style="fill:#606060"/><rect x="52" y="394" width="47" height="1" style="fill:#606060"/><rect x="137" y="387" width="47" height="1" style="fill:#606060"/><rect x="137" y="391" width="47" height="1" style="fill:#606060"/><rect x="137" y="395" width="47" height="1" style="fill:#606060"/><rect x="226" y="387" width="47" height="1" style="fill:#606060"/><rect x="226" y="391" width="47" height="1" style="fill:#606060"/><rect x="226" y="395" width="47" height="1" style="fill:#606060"/><rect x="46" y="564" width="66" height="1" style="fill:#606060"/><rect x="46" y="568" width="66" height="1" style="fill:#606060"/><rect x="46" y="572" width="66" height="1" style="fill:#606060"/><rect x="309" y="388" width="47" height="1" style="fill:#606060"/><rect x="309" y="392" width="47" height="1" style="fill:#606060"/><rect x="309" y="396" width="47" height="1" style="fill:#606060"/></g></g></svg>