<svg xmlns="http://www.w3.org/2000/svg" viewBox="0 0 397 603"><title>одностраничный визитка</title><g id="Слой_2" data-name="Слой 2"><g id="Слой_1-2" data-name="Слой 1"><rect width="397" height="603" rx="12" ry="12" style="fill:#efedea"/><path d="M397,48H0V12A12,12,0,0,1,12,0H385a12,12,0,0,1,12,12Z" style="fill:#5b5b5b"/><rect y="44" width="397" height="177" style="fill:#c4c4c4"/><circle cx="113.5" cy="90.5" r="10.5" style="fill:#e20000"/><circle cx="71.5" cy="23.5" r="10.5" style="fill:#e20000"/><rect x="291" y="13" width="87" height="21" rx="10.5" ry="10.5" style="fill:#e20000"/><rect x="26" y="264" width="96" height="86" style="fill:#bc503b"/><rect x="26" y="246" width="96" height="18" style="fill:#e20000"/><rect x="154" y="264" width="96" height="86" style="fill:#bc503b"/><rect x="154" y="246" width="96" height="18" style="fill:#e20000"/><rect x="282" y="264" width="96" height="86" style="fill:#bc503b"/><rect x="282" y="246" width="96" height="18" style="fill:#e20000"/><path d="M397,169.26l-1-.26c-61-15-33-9-120,31s-63-9-167-46c-48-17.08-84.07-8.58-109,5.51V221H397Z" style="fill:#252622"/><circle cx="220.5" cy="150.5" r="32.5" style="fill:#bc503b"/><rect y="428" width="397" height="30" style="fill:#252622"/><rect y="458" width="198.5" height="117" style="fill:#e20000"/><rect x="198.5" y="458" width="198.5" height="117" style="fill:#bc503b"/><rect x="227" y="510" width="137" height="3" style="fill:#333"/><rect x="23" y="510" width="137" height="3" style="fill:#333"/><rect x="23" y="517" width="137" height="3" style="fill:#333"/><rect x="281" y="357" width="97" height="3.25" style="fill:#333"/><rect x="281" y="366.76" width="97" height="3.25" style="fill:#333"/><rect x="281" y="376.53" width="97" height="3.25" style="fill:#333"/><rect x="281" y="385.2" width="97" height="3.25" style="fill:#333"/><rect x="281" y="394.97" width="97" height="3.25" style="fill:#333"/><rect x="281" y="402.56" width="97" height="3.25" style="fill:#333"/><rect x="281" y="410.15" width="97" height="3.25" style="fill:#333"/><rect x="281" y="417.75" width="97" height="3.25" style="fill:#333"/><rect x="154" y="358" width="96" height="2.7" style="fill:#333"/><rect x="154" y="366.1" width="96" height="2.7" style="fill:#333"/><rect x="154" y="373.3" width="96" height="2.7" style="fill:#333"/><rect x="154" y="381.4" width="96" height="2.7" style="fill:#333"/><rect x="154" y="387.7" width="96" height="2.7" style="fill:#333"/><rect x="154" y="394" width="96" height="2.7" style="fill:#333"/><rect x="154" y="400.3" width="96" height="2.7" style="fill:#333"/><rect x="24" y="358" width="98" height="3" style="fill:#333"/><rect x="24" y="367" width="98" height="3" style="fill:#333"/><rect x="24" y="375" width="98" height="3" style="fill:#333"/><rect x="24" y="384" width="98" height="3" style="fill:#333"/><rect x="24" y="391" width="98" height="3" style="fill:#333"/><rect x="24" y="398" width="98" height="3" style="fill:#333"/><rect x="24" y="405" width="98" height="3" style="fill:#333"/></g></g></svg>