<svg xmlns="http://www.w3.org/2000/svg" xmlns:xlink="http://www.w3.org/1999/xlink" width="1637" height="411" viewBox="0 0 1637 411">
  <defs>
    <style>
      .cls-1, .cls-2 {fill: #151515;}
      .cls-1, .cls-11, .cls-12, .cls-13, .cls-15, .cls-2, .cls-3, .cls-4, .cls-5 {
        fill-rule: evenodd;}
      .cls-1 {filter: url(#filter);}
      .cls-2 {filter: url(#filter-2);}
      .cls-3 {fill: #0e0e0e;}
      .cls-4 {fill: #353535;}
      .cls-5 {fill: #050505;}
      .cls-6 {fill: #e4e4e4;filter: url(#filter-3);}
      .cls-7 {fill: #f2f2f2;}
      .cls-8 {fill: #fbfbfb;}
      .cls-9 {fill: url(#linear-gradient);}
      .cls-10 {fill: url(#linear-gradient-2);}
      .cls-11 {fill: #3f3f3f;}
      .cls-12 {fill: #fff;}
      .cls-13 {fill: url(#linear-gradient-3);}
      .cls-14 {fill: #a3a3a3;}
      .cls-15 {fill: url(#linear-gradient-4);}
    </style>
    <filter id="filter" x="1458" y="132" width="107" height="145" filterUnits="userSpaceOnUse">
      <feGaussianBlur result="blur" stdDeviation="6" in="SourceAlpha"/>
      <feComposite result="composite"/>
      <feComposite result="composite-2"/>
      <feComposite result="composite-3"/>
      <feFlood result="flood" flood-color="#151515" flood-opacity="0.92"/>
      <feComposite result="composite-4" operator="in" in2="composite-3"/>
      <feBlend result="blend" mode="darkerColor" in2="SourceGraphic"/>
      <feBlend result="blend-2" in="SourceGraphic"/>
    </filter>
    <filter id="filter-2" x="68" y="130" width="112" height="147" filterUnits="userSpaceOnUse">
      <feGaussianBlur result="blur" stdDeviation="6" in="SourceAlpha"/>
      <feComposite result="composite"/>
      <feComposite result="composite-2"/>
      <feComposite result="composite-3"/>
      <feFlood result="flood" flood-color="#151515" flood-opacity="0.91"/>
      <feComposite result="composite-4" operator="in" in2="composite-3"/>
      <feBlend result="blend" mode="darkerColor" in2="SourceGraphic"/>
      <feBlend result="blend-2" in="SourceGraphic"/>
    </filter>
    <filter id="filter-3" x="1" y="1" width="1635" height="409" filterUnits="userSpaceOnUse">
      <feGaussianBlur result="blur" stdDeviation="56.333" in="SourceAlpha"/>
      <feComposite result="composite"/>
      <feComposite result="composite-2"/>
      <feComposite result="composite-3"/>
      <feFlood result="flood" flood-color="#f2f2f2" flood-opacity="0.36"/>
      <feComposite result="composite-4" operator="in" in2="composite-3"/>
      <feBlend result="blend" mode="screen" in2="SourceGraphic"/>
      <feBlend result="blend-2" in="SourceGraphic"/>
    </filter>
    <linearGradient id="linear-gradient" x1="194.516" y1="241.594" x2="194.516" y2="167.063" gradientUnits="userSpaceOnUse">
      <stop offset="0" stop-color="#NaNNaNNaN" stop-opacity="0"/>
      <stop offset="0.007" stop-color="#b4b4b4"/>
      <stop offset="0.435" stop-color="#1e1e1e"/>
      <stop offset="0.5" stop-color="#1e1e1e"/>
      <stop offset="0.565" stop-color="#1e1e1e"/>
      <stop offset="0.993" stop-color="#b4b4b4"/>
      <stop offset="1" stop-color="#NaNNaNNaN" stop-opacity="0"/>
    </linearGradient>
    <linearGradient id="linear-gradient-2" x1="1443.72" x2="1443.72" xlink:href="#linear-gradient"/>
    <linearGradient id="linear-gradient-3" x1="1476.75" y1="201.144" x2="1541" y2="203.388" gradientUnits="userSpaceOnUse">
      <stop offset="0" stop-color="#393939"/>
      <stop offset="1" stop-color="#1c1c1c"/>
    </linearGradient>
    <linearGradient id="linear-gradient-4" x1="91" y1="201.33" x2="158" y2="203.67" gradientUnits="userSpaceOnUse">
      <stop offset="0" stop-color="#1e1e1e"/>
      <stop offset="1" stop-color="#404040"/>
    </linearGradient>
  </defs>
  <path id="Прямоугольник_скругл._углы_6" data-name="Прямоугольник, скругл. углы 6" class="cls-1" d="M1481.11,151.011l58.93,0.947a4.141,4.141,0,0,1,3.91,4.213l1.05,94.411a4.219,4.219,0,0,1-3.87,4.412l-59.88,2a4.137,4.137,0,0,1-4.18-4.282l-0.06-97.486A4.118,4.118,0,0,1,1481.11,151.011Z"/>
  <path id="Прямоугольник_скругл._углы_6_копия" data-name="Прямоугольник, скругл. углы 6 копия" class="cls-2" d="M154.851,150.41l-63.583-1.4a4.2,4.2,0,0,0-4.282,4.32l1.06,98.618a4.463,4.463,0,0,0,4.363,4.432l63.381,0.631A4.207,4.207,0,0,0,160,252.7l-0.849-97.814A4.488,4.488,0,0,0,154.851,150.41Z"/>
  <path id="Фигура_1" data-name="Фигура 1" class="cls-3" d="M1538.7,249.036l5.53,9.938s2.63-1.588,2.77-4.141V152.141a8.047,8.047,0,0,0-4.61-4.141l-3.69,4.141v96.9Z"/>
  <path id="Фигура_3" data-name="Фигура 3" class="cls-4" d="M1545.16,258.974h-71.02l3.69-7.453,61.79-1.657Z"/>
  <path id="Фигура_2" data-name="Фигура 2" class="cls-5" d="M1235,303"/>
  <rect id="Прямоугольник_скругл._углы_3" data-name="Прямоугольник, скругл. углы 3" class="cls-6" x="169.781" y="169.188" width="1296.879" height="71.375" rx="10" ry="10"/>
  <rect id="Прямоугольник_скругл._углы_3_копия" data-name="Прямоугольник, скругл. углы 3 копия" class="cls-7" x="170.094" y="174.5" width="1296.686" height="60.469" rx="10" ry="10"/>
  <rect id="Прямоугольник_скругл._углы_3_копия_2" data-name="Прямоугольник, скругл. углы 3 копия 2" class="cls-8" x="178" y="181" width="1280" height="48" rx="10" ry="10"/>
  <path id="Прямоугольник_скругл._углы_5" data-name="Прямоугольник, скругл. углы 5" class="cls-9" d="M179.156,167.063h40.719a0,0,0,0,1,0,0v74.531a0,0,0,0,1,0,0H179.156a10,10,0,0,1-10-10V177.063A10,10,0,0,1,179.156,167.063Z"/>
  <path id="Прямоугольник_скругл._углы_5_копия_2" data-name="Прямоугольник, скругл. углы 5 копия 2" class="cls-10" d="M1420.66,167.063h36.12a10,10,0,0,1,10,10v54.531a10,10,0,0,1-10,10h-36.12a0,0,0,0,1,0,0V167.063A0,0,0,0,1,1420.66,167.063Z"/>
  <path id="Фигура_4" data-name="Фигура 4" class="cls-11" d="M1539,153.205l-64.11-.153-4.44-3.4s-0.33-1.9,3.69-1.656h69.52Z"/>
  <path id="Фигура_5" data-name="Фигура 5" class="cls-12" d="M1470.45,148.828v108.49s-0.07,1.925,4.61,1.656l2.77-7.453-0.92-97.724Z"/>
  <path id="Прямоугольник_1" data-name="Прямоугольник 1" class="cls-13" d="M1476.76,152.955l62.59-1.028L1541,252.6l-63.69-.532Z"/>
  <path id="Фигура_1_копия" data-name="Фигура 1 копия" class="cls-3" d="M96.3,249.013l-5.534,9.935s-2.622-1.587-2.767-4.14V152.14A8.032,8.032,0,0,1,92.611,148l3.689,4.14v96.873Z"/>
  <rect id="Прямоугольник_скругл._углы_4_копия_2" data-name="Прямоугольник, скругл. углы 4 копия 2" class="cls-14" x="1466.66" y="179.219" width="7.59" height="14.5" rx="3.193" ry="3.193"/>
  <rect id="Прямоугольник_скругл._углы_4_копия_2-2" data-name="Прямоугольник, скругл. углы 4 копия 2" class="cls-14" x="1466.66" y="217.156" width="7.59" height="14.5" rx="3.193" ry="3.193"/>
  <path id="Фигура_3_копия" data-name="Фигура 3 копия" class="cls-4" d="M89.844,258.948h71.014l-3.689-7.452-61.791-1.655Z"/>
  <path id="Фигура_4_копия" data-name="Фигура 4 копия" class="cls-11" d="M96,153.2l64.114-.154,4.435-3.394s0.329-1.9-3.686-1.656H91.338Z"/>
  <path id="Фигура_5_копия" data-name="Фигура 5 копия" class="cls-12" d="M164.547,148.828V257.292s0.074,1.925-4.612,1.656l-2.766-7.452,0.922-97.7Z"/>
  <path id="Прямоугольник_1_копия" data-name="Прямоугольник 1 копия" class="cls-15" d="M157.985,153.02l-65.268-1.032L91,253.011l66.408-.534Z"/>
  <rect id="Прямоугольник_скругл._углы_4" data-name="Прямоугольник, скругл. углы 4" class="cls-14" x="162.344" y="179.219" width="7.437" height="14.5" rx="3.115" ry="3.115"/>
  <rect id="Прямоугольник_скругл._углы_4_копия" data-name="Прямоугольник, скругл. углы 4 копия" class="cls-14" x="162.344" y="217.156" width="7.437" height="14.5" rx="3.115" ry="3.115"/>
</svg>
