<svg version="1.1" id="Слой_1" xmlns="http://www.w3.org/2000/svg" xmlns:xlink="http://www.w3.org/1999/xlink" x="0px" y="0px"
	 viewBox="0 0 697.4 1183" style="enable-background:new 0 0 697.4 1183;" xml:space="preserve">
<style type="text/css">
	.stt0{fill:#1E1E1E;}
	.stt1{fill:url(#SVGID_1t_);}
	.stt2{fill:url(#SVGID_2t_);}
	.stt3{fill:#FFFFFF;}
	.stt4{fill:#3A3A3A;}
	.stt5{opacity:0.43;fill:url(#SVGID_3t_);enable-background:new    ;}
</style>
<path class="stt0" d="M310.4,774.5h-12.9c-6.6,0-12-5.4-12-12V728c0-6.6,5.4-12,12-12h12.9c6.6,0,12,5.4,12,12v34.5
	C322.4,769.1,317,774.5,310.4,774.5z"/>
<path class="stt0" d="M310.4,472.3h-12.9c-6.6,0-12-5.4-12-12v-34.5c0-6.6,5.4-12,12-12h12.9c6.6,0,12,5.4,12,12v34.5
	C322.4,466.9,317,472.3,310.4,472.3z"/>
<linearGradient id="SVGID_1t_" gradientUnits="userSpaceOnUse" x1="399.1334" y1="591.876" x2="174.1378" y2="588.2835" gradientTransform="matrix(1 0 0 -1 0 1183.8)">
	<stop  offset="0" style="stop-color:#FFFFFF"/>
	<stop  offset="1" style="stop-color:#000000"/>
</linearGradient>
<path class="stt1" d="M322.4,461.1v264.4c0,5.4-4.4,9.7-9.7,9.5c-39.2-0.8-184.8-12.5-215-140.6c-0.2-0.8-0.3-1.7-0.2-2.6
	c0.4-14.3,11.4-133.9,215-140.2C317.9,451.4,322.4,455.7,322.4,461.1z"/>
<linearGradient id="SVGID_2t_" gradientUnits="userSpaceOnUse" x1="328.7346" y1="590.7932" x2="315.6812" y2="590.5848" gradientTransform="matrix(1 0 0 -1 0 1183.8)">
	<stop  offset="0" style="stop-color:#FFFFFF"/>
	<stop  offset="1" style="stop-color:#000000"/>
</linearGradient>
<path class="stt2" d="M313.5,451.6c0,0,7.3,0.3,8.8,8.3l0.1,265.5c0,0,0.1,8.5-8.9,9.5V451.6z"/>
<path class="stt3" d="M322.4,499c0,0-11.7,104.9,0,185.1V499z"/>
<circle class="stt4" cx="303.9" cy="754.7" r="9.5"/>
<circle class="stt4" cx="303.9" cy="433.6" r="9.5"/>
<radialGradient id="SVGID_3t_" cx="-272.5485" cy="657.2725" r="408.4504" gradientTransform="matrix(0.78 -4.881119e-03 -1.309226e-03 -0.8909 538.6116 1185.9625)" gradientUnits="userSpaceOnUse">
	<stop  offset="0.1622" style="stop-color:#FFFFFF"/>
	<stop  offset="0.3486" style="stop-color:#FFFFFF;stop-opacity:0.51"/>
	<stop  offset="0.6811" style="stop-color:#000000;stop-opacity:0"/>
</radialGradient>
<ellipse class="stt5" cx="348.7" cy="591.5" rx="348.7" ry="591.5"/>
</svg>
