<!-- <?xml-stylesheet type="text/css" href="../css/main.min.css"?> -->
<svg xmlns="http://www.w3.org/2000/svg" xmlns:xlink="http://www.w3.org/1999/xlink" width="559" height="536" viewBox="0 0 559 536">

  <defs>
    <!-- <style>
      .cls-1, .cls-2 { fill-rule: evenodd; }
      .cls-1 { fill: url(#linear-gradient); }
      .cls-2 { fill: #fff; filter: url(#filter); }
    </style> -->
    <style type="text/css">
    <![CDATA[
    .cls-1, .cls-2 { fill-rule: evenodd; }
      .cls-1 { fill: url(#linear-gradient); }
      .cls-2 { fill: #fff; filter: url(#filter); }
    ]]>
    </style>
    <linearGradient id="linear-gradient" x1="281.107" y1="188" x2="281.893" y2="233" gradientUnits="userSpaceOnUse">
      <stop offset="0" stop-color="#1d1d1d"/>
      <stop offset="1" stop-color="#8b8b8b"/>
    </linearGradient>
    <filter id="filter" x="-26" y="-23" width="612" height="640" filterUnits="userSpaceOnUse">
      <feGaussianBlur result="blur" stdDeviation="83.333" in="SourceAlpha"/>
      <feComposite result="composite"/>
      <feComposite result="composite-2"/>
      <feComposite result="composite-3"/>
      <feFlood result="flood" flood-color="#fff" flood-opacity="0.51"/>
      <feComposite result="composite-4" operator="in" in2="composite-3"/>
      <feBlend result="blend" mode="screen" in2="SourceGraphic"/>
      <feBlend result="blend-2" in="SourceGraphic"/>
    </filter>
  </defs>
  <path id="Фигура_1" data-name="Фигура 1" class="cls-1" d="M255,221h53a2,2,0,0,1,2,2v8a2,2,0,0,1-2,2H255a2,2,0,0,1-2-2v-8A2,2,0,0,1,255,221Zm0-9h53a2,2,0,0,1,2,2v5a2,2,0,0,1-2,2H255a2,2,0,0,1-2-2v-5A2,2,0,0,1,255,212Zm0-9h53a2,2,0,0,1,2,2v5a2,2,0,0,1-2,2H255a2,2,0,0,1-2-2v-5A2,2,0,0,1,255,203Zm3-9h47a2,2,0,0,1,2,2v5a2,2,0,0,1-2,2H258a2,2,0,0,1-2-2v-5A2,2,0,0,1,258,194Zm11,0h26l-3-6H272Z"/>
  <path id="контур_лампы_копия" data-name="контур лампы копия" class="cls-2" d="M280.423,229.019l-27.3-.521a6.986,6.986,0,0,0-3.608,6.323c0.077,4.537,1.158,16.1-7.022,32.989,0,0-18.388,25.4-17,38.03,0,0-3.831,25.449,19.455,46.279,0,0,12.88,15.649,43.357,11.87,0,0,34.152-4.1,43.8-41.585,0,0,6.068-22.627-6.786-40.227,0,0-10.431-17.261-11.2-22.3,0,0-2.317-17.777-1.879-23.28l-0.537-2.335s-0.451-4.565-3.4-4.714Z"/>
</svg>
