<svg xmlns="http://www.w3.org/2000/svg" xmlns:xlink="http://www.w3.org/1999/xlink" width="1627" height="195" viewBox="0 0 1627 195">
  <defs>
    <style>
      .cls-1, .cls-2 {
        fill: #cecece;
      }

      .cls-2 {
        fill-rule: evenodd;
      }

      .cls-3, .cls-4 {
        fill: #363636;
      }

      .cls-3 {
        filter: url(#filter);
      }

      .cls-4 {
        filter: url(#filter-2);
      }

      .cls-5 {
        fill: #fff;
        filter: url(#filter-3);
      }
    </style>
    <filter id="filter" x="1493" y="4" width="137" height="187" filterUnits="userSpaceOnUse">
      <feOffset result="offset" in="SourceAlpha"/>
      <feGaussianBlur result="blur" stdDeviation="4.899"/>
      <feFlood result="flood"/>
      <feComposite result="composite" operator="in" in2="blur"/>
      <feBlend result="blend" in="SourceGraphic"/>
    </filter>
    <filter id="filter-2" x="-2" y="4" width="130" height="187" filterUnits="userSpaceOnUse">
      <feOffset result="offset" in="SourceAlpha"/>
      <feGaussianBlur result="blur" stdDeviation="4.899"/>
      <feFlood result="flood" flood-opacity="0.89"/>
      <feComposite result="composite" operator="in" in2="blur"/>
      <feBlend result="blend" in="SourceGraphic"/>
    </filter>
    <filter id="filter-3" x="49" y="-4" width="1524" height="204" filterUnits="userSpaceOnUse">
      <feGaussianBlur result="blur" stdDeviation="19" in="SourceAlpha"/>
      <feComposite result="composite"/>
      <feComposite result="composite-2"/>
      <feComposite result="composite-3"/>
      <feFlood result="flood" flood-color="#cbd0e6" flood-opacity="0.78"/>
      <feComposite result="composite-4" operator="in" in2="composite-3"/>
      <feBlend result="blend" mode="screen" in2="SourceGraphic"/>
      <feBlend result="blend-2" in="SourceGraphic"/>
    </filter>
  </defs>
  <rect id="Прямоугольник_скругл._углы_4" data-name="Прямоугольник, скругл. углы 4" class="cls-1" x="99.625" y="66.688" width="8.031" height="17.531" rx="3.115" ry="3.115"/>
  <rect id="Прямоугольник_скругл._углы_4_копия" data-name="Прямоугольник, скругл. углы 4 копия" class="cls-1" x="99.625" y="112.5" width="8.031" height="17.5" rx="3.115" ry="3.115"/>
  <path id="Прямоугольник_скругл._углы_4_копия_2" data-name="Прямоугольник, скругл. углы 4 копия 2" class="cls-2" d="M1517.1,66.688h1.83a3.186,3.186,0,0,1,3.19,3.192V81.026a3.186,3.186,0,0,1-3.19,3.192h-1.83a3.192,3.192,0,0,1-3.19-3.192V69.88A3.192,3.192,0,0,1,1517.1,66.688Z"/>
  <path id="Прямоугольник_скругл._углы_4_копия_2-2" data-name="Прямоугольник, скругл. углы 4 копия 2" class="cls-2" d="M1517.1,112.5h1.83a3.186,3.186,0,0,1,3.19,3.193v11.114a3.186,3.186,0,0,1-3.19,3.193h-1.83a3.192,3.192,0,0,1-3.19-3.193V115.693A3.192,3.192,0,0,1,1517.1,112.5Z"/>
  <rect id="Прямоугольник_скругл._углы_2_копия" data-name="Прямоугольник, скругл. углы 2 копия" class="cls-3" x="1518.78" y="29" width="85.22" height="136" rx="5" ry="5"/>
  <rect id="Прямоугольник_скругл._углы_2" data-name="Прямоугольник, скругл. углы 2" class="cls-4" x="23" y="29" width="78.781" height="136" rx="5" ry="5"/>
  <rect id="Прямоугольник_скругл._углы_3" data-name="Прямоугольник, скругл. углы 3" class="cls-5" x="107.656" y="54.594" width="1406.254" height="86.156" rx="10" ry="10"/>
</svg>
