<?xml version="1.0" encoding="utf-8"?>
<!-- Generator: Adobe Illustrator 22.0.1, SVG Export Plug-In . SVG Version: 6.00 Build 0)  -->
<svg version="1.1" id="Слой_1" xmlns="http://www.w3.org/2000/svg" xmlns:xlink="http://www.w3.org/1999/xlink" x="0px" y="0px"
	 viewBox="0 0 69.4 76.2" style="enable-background:new 0 0 69.4 76.2;" xml:space="preserve">
<style type="text/css">
	.st0{fill:#FFFFFF;}
</style>
<path class="st0" d="M10.7,76.2H1.2c-0.7,0-1.2-0.5-1.2-1.2V60.4c0-0.7,0.5-1.2,1.2-1.2h9.5c0.7,0,1.2,0.5,1.2,1.2v14.5
	C11.9,75.6,11.4,76.2,10.7,76.2z"/>
<path class="st0" d="M30.1,76.2h-9.5c-0.7,0-1.2-0.5-1.2-1.2V52.2c0-0.7,0.5-1.2,1.2-1.2h9.5c0.7,0,1.2,0.5,1.2,1.2v22.7
	C31.3,75.6,30.8,76.2,30.1,76.2z"/>
<path class="st0" d="M49.2,76.2h-9.5c-0.7,0-1.2-0.5-1.2-1.2V34.8c0-0.7,0.5-1.2,1.2-1.2h9.5c0.7,0,1.2,0.5,1.2,1.2v40.2
	C50.4,75.6,49.9,76.2,49.2,76.2z"/>
<path class="st0" d="M5.3,37l-4.5-4.2c-0.5-0.5-0.5-1.2-0.1-1.7L23.1,7c0.5-0.5,1.2-0.5,1.7-0.1l4.5,4.2c0.5,0.5,0.5,1.2,0.1,1.7
	L7,36.9C6.6,37.4,5.8,37.5,5.3,37z"/>
<path class="st0" d="M68.2,76.2h-9.5c-0.7,0-1.2-0.5-1.2-1.2V1.3c0-0.7,0.5-1.2,1.2-1.2h9.5c0.7,0,1.2,0.5,1.2,1.2v73.6
	C69.4,75.6,68.8,76.2,68.2,76.2z"/>
<path class="st0" d="M34.8,0L15,0.4c-0.5,0-0.7,0.6-0.3,0.9l20.8,19.4c0.3,0.3,0.9,0.1,0.9-0.4l-1-19.8C35.3,0.2,35.1,0,34.8,0z"/>
</svg>
