<svg version="1.1" id="Слой_1" xmlns="http://www.w3.org/2000/svg" xmlns:xlink="http://www.w3.org/1999/xlink" x="0px" y="0px"
	 viewBox="0 0 2018 1149" style="enable-background:new 0 0 2018 1149;" xml:space="preserve">
<style type="text/css">
	.st0{fill:url(#SVGID_1_);}
	.st1{fill:url(#SVGID_2_);}
	.st2{fill:url(#SVGID_3_);}
	.st3{fill:url(#SVGID_4_);}
	.st4{fill:url(#SVGID_5_);}
	.st5{fill:url(#SVGID_6_);}
	.st6{fill:#161616;}
	.st7{fill:url(#SVGID_7_);}
	.st8{fill:url(#SVGID_8_);}
	.st9{fill:url(#SVGID_9_);}
	.st10{fill:url(#SVGID_10_);}
	.st11{fill:url(#SVGID_11_);}
	.st12{fill:url(#SVGID_12_);}
	.st13{fill:url(#SVGID_13_);}
	.st14{fill:url(#SVGID_14_);stroke:url(#SVGID_15_);stroke-miterlimit:10;}
	.st15{fill:url(#SVGID_16_);}
	.st16{fill:url(#SVGID_17_);}
	.st17{fill:#383838;}
	.st18{fill:#EA0000;}
	.st19{fill:url(#SVGID_18_);}
	.st20{fill:#D1D1D1;}
	.st21{fill:#DBDBDB;}
	.st22{fill:#C1C1C1;}
	.st23{fill:#A5A5A5;}
	.st24{fill:#727272;}
	.st25{fill:#6B6B6B;}
	.st26{fill:#636363;}
	.st27{fill:#515151;}
	.st28{fill:#494949;}
	.st29{fill:url(#SVGID_19_);}
	.st30{fill:#353535;}
	.st31{fill:#262626;}
	.st32{fill:#232323;}
	.st33{opacity:0.54;}
	.st34{opacity:0.1;}
</style>
<radialGradient id="SVGID_1_" cx="973.969" cy="458.6283" r="821.015" gradientUnits="userSpaceOnUse">
	<stop  offset="0" style="stop-color:#000000"/>
	<stop  offset="5.553940e-02" style="stop-color:#262626"/>
	<stop  offset="0.179" style="stop-color:#868686"/>
	<stop  offset="0.2027" style="stop-color:#999999"/>
	<stop  offset="0.4784" style="stop-color:#C3C3C3"/>
	<stop  offset="0.9892" style="stop-color:#000000"/>
</radialGradient>
<rect class="st0" width="2018" height="1149"/>
<linearGradient id="SVGID_2_" gradientUnits="userSpaceOnUse" x1="945" y1="1070.75" x2="995.5" y2="1070.75">
	<stop  offset="0" style="stop-color:#3C3C3C"/>
	<stop  offset="0" style="stop-color:#262624"/>
	<stop  offset="0.5811" style="stop-color:#333333"/>
	<stop  offset="0.9716" style="stop-color:#040404"/>
	<stop  offset="1" style="stop-color:#000000"/>
</linearGradient>
<rect x="945" y="992.5" class="st1" width="50.5" height="156.5"/>
<linearGradient id="SVGID_3_" gradientUnits="userSpaceOnUse" x1="960" y1="965.25" x2="979" y2="965.25">
	<stop  offset="0" style="stop-color:#3C3C3C"/>
	<stop  offset="0" style="stop-color:#262624"/>
	<stop  offset="0.5811" style="stop-color:#4D4D4D"/>
	<stop  offset="0.8455" style="stop-color:#1E1E1E"/>
	<stop  offset="1" style="stop-color:#000000"/>
</linearGradient>
<rect x="960" y="948" class="st2" width="19" height="34.5"/>
<linearGradient id="SVGID_4_" gradientUnits="userSpaceOnUse" x1="931.4584" y1="894.7462" x2="1007" y2="894.7462">
	<stop  offset="0" style="stop-color:#3C3C3C"/>
	<stop  offset="0" style="stop-color:#161616"/>
	<stop  offset="0" style="stop-color:#000000"/>
	<stop  offset="0.5811" style="stop-color:#333333"/>
	<stop  offset="0.9716" style="stop-color:#040404"/>
	<stop  offset="1" style="stop-color:#000000"/>
</linearGradient>
<path class="st3" d="M931.5,902.7c0,0,2.5-20.6,38.5-16.6c0,0,33-3,37,18"/>
<radialGradient id="SVGID_5_" cx="968.3372" cy="981" r="21.6811" gradientUnits="userSpaceOnUse">
	<stop  offset="0" style="stop-color:#3C3C3C"/>
	<stop  offset="0" style="stop-color:#262624"/>
	<stop  offset="0.5811" style="stop-color:#333333"/>
	<stop  offset="0.9716" style="stop-color:#040404"/>
	<stop  offset="1" style="stop-color:#000000"/>
</radialGradient>
<path class="st4" d="M956,978c0,0-48,6,12,6s14-6,14-6H956z"/>
<linearGradient id="SVGID_6_" gradientUnits="userSpaceOnUse" x1="956" y1="868" x2="983" y2="868">
	<stop  offset="0" style="stop-color:#3C3C3C"/>
	<stop  offset="0" style="stop-color:#262624"/>
	<stop  offset="0.5811" style="stop-color:#4D4D4D"/>
	<stop  offset="0.8455" style="stop-color:#1E1E1E"/>
	<stop  offset="1" style="stop-color:#000000"/>
</linearGradient>
<rect x="956" y="844" class="st5" width="27" height="48"/>
<path class="st6" d="M956,848.5c0,0,14,19.2,27,0v-2.9h-27V848.5z"/>
<linearGradient id="SVGID_7_" gradientUnits="userSpaceOnUse" x1="938.3262" y1="806.5579" x2="1002" y2="806.5579">
	<stop  offset="0" style="stop-color:#3C3C3C"/>
	<stop  offset="0" style="stop-color:#161616"/>
	<stop  offset="0" style="stop-color:#000000"/>
	<stop  offset="0.5811" style="stop-color:#333333"/>
	<stop  offset="0.9716" style="stop-color:#040404"/>
	<stop  offset="1" style="stop-color:#000000"/>
</linearGradient>
<path class="st7" d="M938.3,811c0,0,0.7-11.7,18.7-13.8c18-2.2,42-3.2,45,19.8L938.3,811z"/>
<radialGradient id="SVGID_8_" cx="970.3372" cy="993" r="21.6811" gradientTransform="matrix(0.8357 0 0 1 159.6242 0)" gradientUnits="userSpaceOnUse">
	<stop  offset="0" style="stop-color:#3C3C3C"/>
	<stop  offset="0" style="stop-color:#262624"/>
	<stop  offset="0.5108" style="stop-color:#000000"/>
	<stop  offset="1" style="stop-color:#000000"/>
</radialGradient>
<path class="st8" d="M960.2,990c0,0-40.1,6,10,6s11.7-6,11.7-6H960.2z"/>
<radialGradient id="SVGID_9_" cx="968.5" cy="987.0522" r="21.8487" gradientTransform="matrix(1 0 0 1.2127 0 -208.9533)" gradientUnits="userSpaceOnUse">
	<stop  offset="0" style="stop-color:#3C3C3C"/>
	<stop  offset="0" style="stop-color:#262624"/>
	<stop  offset="0.5811" style="stop-color:#333333"/>
	<stop  offset="0.9716" style="stop-color:#040404"/>
	<stop  offset="1" style="stop-color:#000000"/>
</radialGradient>
<path class="st9" d="M945,994l-7-12c0,0,31.9,1.9,61,0l-3,12H945z"/>
<linearGradient id="SVGID_10_" gradientUnits="userSpaceOnUse" x1="584.2149" y1="682.803" x2="1356.3282" y2="682.803" gradientTransform="matrix(1 -7.761650e-03 7.761650e-03 1 -3.3605 7.5316)">
	<stop  offset="0" style="stop-color:#3C3C3C"/>
	<stop  offset="0" style="stop-color:#262624"/>
	<stop  offset="0.1595" style="stop-color:#2A2A29"/>
	<stop  offset="0.327" style="stop-color:#E6E6E6"/>
	<stop  offset="0.5324" style="stop-color:#CCCCCC"/>
	<stop  offset="0.5649" style="stop-color:#CCCCCC"/>
	<stop  offset="0.7405" style="stop-color:#111111"/>
	<stop  offset="0.7568" style="stop-color:#000000"/>
</linearGradient>
<path class="st10" d="M589,667c0,0-13.7,14.2,18,16s434,39,739,1c0,0,21.9-4.1,7-12c0,0-373.4,30.9-760.3,2.9"/>
<path class="st6" d="M960,949.3v5c0,0,8,17.3,19,0V948L960,949.3z"/>
<linearGradient id="SVGID_11_" gradientUnits="userSpaceOnUse" x1="957" y1="745" x2="982" y2="745">
	<stop  offset="0" style="stop-color:#3C3C3C"/>
	<stop  offset="0" style="stop-color:#262624"/>
	<stop  offset="0.2027" style="stop-color:#4B4B4B"/>
	<stop  offset="0.5811" style="stop-color:#B3B3B3"/>
	<stop  offset="0.7373" style="stop-color:#838383"/>
	<stop  offset="0.9108" style="stop-color:#4A4A4A"/>
	<stop  offset="1" style="stop-color:#333332"/>
	<stop  offset="1" style="stop-color:#000000"/>
</linearGradient>
<rect x="957" y="679" class="st11" width="25" height="132"/>
<linearGradient id="SVGID_12_" gradientUnits="userSpaceOnUse" x1="930" y1="918" x2="1008" y2="918">
	<stop  offset="0" style="stop-color:#3C3C3C"/>
	<stop  offset="0" style="stop-color:#1A1A1A"/>
	<stop  offset="0.5811" style="stop-color:#666666"/>
	<stop  offset="0.7851" style="stop-color:#363636"/>
	<stop  offset="1" style="stop-color:#000000"/>
</linearGradient>
<path class="st12" d="M1008,909.7c0,17.7-17.5,40.3-39,40.3s-39-21.6-39-39.2c0-17.7,17.5-24.8,39-24.8S1008,892.1,1008,909.7z"/>
<linearGradient id="SVGID_13_" gradientUnits="userSpaceOnUse" x1="937" y1="823.5" x2="1002" y2="823.5">
	<stop  offset="0" style="stop-color:#3C3C3C"/>
	<stop  offset="0" style="stop-color:#262624"/>
	<stop  offset="0.5378" style="stop-color:#999999"/>
	<stop  offset="0.5811" style="stop-color:#B3B3B3"/>
	<stop  offset="0.7013" style="stop-color:#838383"/>
	<stop  offset="0.9739" style="stop-color:#0C0C0C"/>
	<stop  offset="1" style="stop-color:#000000"/>
</linearGradient>
<path class="st13" d="M1002,816.9c0,14.1-14.6,32.1-32.5,32.1S937,831.8,937,817.7s14.6-19.7,32.5-19.7S1002,802.8,1002,816.9z"/>
<linearGradient id="SVGID_14_" gradientUnits="userSpaceOnUse" x1="772.3718" y1="194.8145" x2="1172.3362" y2="194.8145" gradientTransform="matrix(1 -7.761650e-03 7.761650e-03 1 -3.3605 7.5316)">
	<stop  offset="0" style="stop-color:#3C3C3C"/>
	<stop  offset="0" style="stop-color:#262624"/>
	<stop  offset="0.1595" style="stop-color:#2A2A29"/>
	<stop  offset="0.4622" style="stop-color:#666666"/>
	<stop  offset="0.5811" style="stop-color:#4A4A4A"/>
	<stop  offset="0.7568" style="stop-color:#000000"/>
</linearGradient>
<linearGradient id="SVGID_15_" gradientUnits="userSpaceOnUse" x1="770.0601" y1="194.9684" x2="1171.0282" y2="194.9684">
	<stop  offset="0" style="stop-color:#3C3C3C"/>
	<stop  offset="0" style="stop-color:#1A1A1A"/>
	<stop  offset="0.5811" style="stop-color:#C1272D"/>
	<stop  offset="0.6931" style="stop-color:#911D22"/>
	<stop  offset="0.9469" style="stop-color:#1A0506"/>
	<stop  offset="1" style="stop-color:#000000"/>
</linearGradient>
<path class="st14" d="M779.4,195.6c7.7-1.6,181-36.9,379.7-2.9c0,0,0.1,0,0.1,0l3.7,0.9c4.9,1.1,8.2,5.8,7.5,10.8
	c-0.5,3.3-1.9,6.2-5.4,5.6c-7.5-1.2-345,1.6-384.3,2c-3.3,0-6.6-1.4-8.6-4c-2.4-3.2-3-7.7,6.8-12.1
	C779,195.7,779.2,195.6,779.4,195.6z"/>
<linearGradient id="SVGID_16_" gradientUnits="userSpaceOnUse" x1="585.5833" y1="437.2524" x2="1351.307" y2="437.2524" gradientTransform="matrix(1 -7.761650e-03 7.761650e-03 1 -3.3605 7.5316)">
	<stop  offset="0" style="stop-color:#3C3C3C"/>
	<stop  offset="0" style="stop-color:#626262"/>
	<stop  offset="0" style="stop-color:#999999"/>
	<stop  offset="0.5162" style="stop-color:#CCCCCC"/>
	<stop  offset="0.9571" style="stop-color:#9D9D9D"/>
	<stop  offset="0.9892" style="stop-color:#999999"/>
</linearGradient>
<path class="st15" d="M1351.8,669c0,0,13.1,8.9-42.9,10.3c-56,1.4-561.9,12.4-711.1-4.5c0,0-15,0.1-9.1-11.9
	c5.9-12,183.5-456.4,183.5-456.4s148.7-34.2,395-3.1L1351.8,669z"/>
<linearGradient id="SVGID_17_" gradientUnits="userSpaceOnUse" x1="584.3223" y1="679.6299" x2="1353" y2="679.6299" gradientTransform="matrix(1 -7.761650e-03 7.761650e-03 1 -3.3605 7.5316)">
	<stop  offset="0" style="stop-color:#3C3C3C"/>
	<stop  offset="0" style="stop-color:#262624"/>
	<stop  offset="0.1595" style="stop-color:#2A2A29"/>
	<stop  offset="0.4622" style="stop-color:#999999"/>
	<stop  offset="0.5354" style="stop-color:#6A6A6A"/>
	<stop  offset="0.5811" style="stop-color:#4A4A4A"/>
	<stop  offset="0.7568" style="stop-color:#000000"/>
</linearGradient>
<path class="st16" d="M589.4,666.8c0,0-14.5,12.3,17.3,14c31.7,1.8,479.1,30.3,741.6,0.2c0,0,14.8-4.1-0.1-12
	c0,0-368.6,25.9-755.5-2.1"/>
<g>
	<g>
		<path class="st17" d="M771.4,661.5c-13.6-0.7-27.2-1.5-40.8-2.4c1.4-22,2.8-44.1,4.2-66.1c2.8,0.2,5.5,0.3,8.3,0.5
			c-1.2,19.6-2.4,39.1-3.6,58.7c10.8,0.7,21.6,1.3,32.4,1.8C771.7,656.5,771.5,659,771.4,661.5z"/>
		<path class="st18" d="M784.8,662.2c1.1-22,2.2-44.1,3.3-66.1c2.8,0.1,5.5,0.3,8.3,0.4c-1.1,22.1-2.1,44.1-3.2,66.2
			C790.4,662.5,787.6,662.3,784.8,662.2z"/>
		<path class="st17" d="M838.2,666c-18.6-0.7-30-14.7-29-35.9c0.9-20.9,13.4-34.1,31.5-33.4c14.7,0.5,25.1,9,27.1,22.2
			c-2.8-0.1-5.6-0.2-8.4-0.3c-2.6-9-9.1-14-18.9-14.3c-13.1-0.5-22,9.7-22.7,26.2c-0.7,16.7,7.2,27.4,20.8,27.9
			c12,0.4,20.4-6.9,20.8-18.1c0-0.5,0-1.1,0.1-1.6c-6.3-0.2-12.6-0.4-18.8-0.6c0.1-2.4,0.2-4.8,0.3-7.2c9,0.3,18.1,0.6,27.1,0.9
			c-0.1,2.7-0.2,5.4-0.2,8.1C867.2,656.2,855.5,666.7,838.2,666z"/>
		<path class="st17" d="M927.1,666.8c0.2-10.1,0.3-20.1,0.5-30.2c-12.2-0.2-24.5-0.4-36.7-0.7c-0.2,10-0.5,20.1-0.7,30.1
			c-2.8-0.1-5.6-0.1-8.4-0.2c0.6-22.1,1.2-44.1,1.7-66.2c2.8,0.1,5.5,0.1,8.3,0.2c-0.2,9.5-0.5,19.1-0.7,28.6
			c12.2,0.3,24.4,0.5,36.6,0.7c0.1-9.5,0.3-19.1,0.4-28.6c2.8,0,5.5,0.1,8.3,0.1c-0.3,22.1-0.6,44.2-0.9,66.2
			C932.7,666.9,929.9,666.8,927.1,666.8z"/>
		<path class="st17" d="M970.2,667.2c0.1-19.6,0.2-39.2,0.3-58.8c-7.1,0-14.3-0.1-21.4-0.2c0-2.5,0-5,0.1-7.4c17,0.2,34,0.2,51,0.2
			c0,2.5,0,5,0,7.4c-7.1,0-14.3,0-21.4,0c0,19.6-0.1,39.2-0.1,58.8C975.8,667.2,973,667.2,970.2,667.2z"/>
		<path class="st17" d="M1065.3,666.5c-4.9,0.1-9.7,0.2-14.6,0.2c-6.2-22-12.4-44-18.4-66c5.3-0.1,10.5-0.1,15.8-0.2
			c3.4,15,6.9,30.1,10.4,45.1c0.3,0,0.5,0,0.8,0c3.6-15.1,7.2-30.3,10.7-45.5c4.2-0.1,8.3-0.2,12.5-0.3c4.3,15,8.5,30,12.9,45
			c0.3,0,0.5,0,0.8,0c2.8-15.2,5.6-30.3,8.4-45.5c5.2-0.1,10.5-0.3,15.7-0.5c-5.1,22.3-10.3,44.5-15.6,66.7
			c-4.8,0.1-9.7,0.3-14.5,0.4c-4.4-14-8.7-27.9-13-41.9c-0.3,0-0.5,0-0.8,0C1072.7,638.3,1069,652.4,1065.3,666.5z"/>
		<path class="st17" d="M1178.9,662.9c-15.1,0.7-30.2,1.3-45.3,1.8c-0.8-22.1-1.6-44.1-2.3-66.2c14.9-0.5,29.7-1.1,44.6-1.8
			c0.2,4.2,0.4,8.5,0.6,12.7c-9.8,0.5-19.6,0.9-29.5,1.3c0.2,4.8,0.4,9.5,0.6,14.3c9.3-0.4,18.6-0.8,27.9-1.2
			c0.2,3.9,0.4,7.8,0.5,11.7c-9.3,0.4-18.6,0.8-27.9,1.2c0.2,4.9,0.4,9.8,0.6,14.8c9.9-0.4,19.8-0.8,29.8-1.3
			C1178.5,654.4,1178.7,658.6,1178.9,662.9z"/>
		<path class="st17" d="M1192.9,662.2c-1.1-22-2.2-44.1-3.3-66.1c9.9-0.5,19.9-1,29.8-1.6c13-0.7,21.1,5,21.8,15.3
			c0.4,7.1-4.5,13.4-11.4,14.9c0,0.3,0,0.5,0,0.8c8.8,0,15.8,6.3,16.4,14.7c0.7,11.6-7.8,19.6-22.2,20.4
			C1213.7,661.1,1203.3,661.7,1192.9,662.2z M1206.3,622.4c3.3-0.2,6.5-0.4,9.8-0.5c6.9-0.4,10.6-3.6,10.3-8.6
			c-0.3-4.9-4.1-7.8-10.3-7.4c-3.6,0.2-7.1,0.4-10.7,0.6C1205.7,611.8,1206,617.1,1206.3,622.4z M1219.3,649.5
			c7.6-0.4,11.6-3.9,11.2-9.8c-0.3-5.7-4.8-8.5-12.5-8.1c-3.8,0.2-7.5,0.4-11.3,0.6c0.3,6,0.6,11.9,1,17.9
			C1211.6,650,1215.5,649.8,1219.3,649.5z"/>
	</g>
</g>
<radialGradient id="SVGID_18_" cx="920.4902" cy="383.9824" r="129.5" gradientTransform="matrix(1.583 0 0 1.4247 -489.1467 -126.5637)" gradientUnits="userSpaceOnUse">
	<stop  offset="0" style="stop-color:#3C3C3C"/>
	<stop  offset="0" style="stop-color:#626262;stop-opacity:0.5653"/>
	<stop  offset="0" style="stop-color:#999999;stop-opacity:0"/>
	<stop  offset="0.5891" style="stop-color:#F2F2F2;stop-opacity:0.1"/>
	<stop  offset="0.6889" style="stop-color:#C3C3C3;stop-opacity:4.496568e-02"/>
	<stop  offset="0.7704" style="stop-color:#999999;stop-opacity:0"/>
</radialGradient>
<ellipse class="st19" cx="968" cy="420.5" rx="205" ry="184.5"/>
<circle class="st20" cx="1124" cy="704" r="5"/>
<circle class="st21" cx="1124" cy="714" r="5"/>
<circle class="st22" cx="1124" cy="724" r="5"/>
<circle class="st23" cx="1124" cy="734" r="5"/>
<circle class="st24" cx="1124" cy="744" r="5"/>
<circle class="st25" cx="1124" cy="754" r="5"/>
<circle class="st26" cx="1124" cy="764" r="5"/>
<circle class="st27" cx="1124" cy="774" r="5"/>
<circle class="st28" cx="1124" cy="784" r="5"/>
<radialGradient id="SVGID_19_" cx="1123.5" cy="843.5" r="26.5" gradientUnits="userSpaceOnUse">
	<stop  offset="0" style="stop-color:#4D4D4D"/>
	<stop  offset="0.1649" style="stop-color:#4F4F4F"/>
	<stop  offset="0.2716" style="stop-color:#232323"/>
	<stop  offset="0.3498" style="stop-color:#000000"/>
	<stop  offset="0.6965" style="stop-color:#000000"/>
	<stop  offset="0.9944" style="stop-color:#FFFFFF"/>
</radialGradient>
<circle class="st29" cx="1123.5" cy="843.5" r="26.5"/>
<circle class="st30" cx="1124" cy="794" r="5"/>
<circle class="st31" cx="1124" cy="804" r="5"/>
<circle class="st32" cx="1124" cy="814" r="5"/>
<path class="st33" d="M938,982l7,12c0,0,9.5,47.3,23,51c18,5,27.5-50.5,27.5-50.5L999,982C999,982,972,985,938,982z"/>
<path class="st34" d="M1097,844c0,0,0,24,26,26c0,0,25,1,27-26C1150,844,1129,864,1097,844z"/>
<path d="M1051,833"/>
</svg>
