<?xml version="1.0" encoding="utf-8"?>
<!-- Generator: Adobe Illustrator 22.0.1, SVG Export Plug-In . SVG Version: 6.00 Build 0)  -->
<svg version="1.1" id="Слой_2_1_" xmlns="http://www.w3.org/2000/svg" xmlns:xlink="http://www.w3.org/1999/xlink" x="0px"
	 y="0px" viewBox="0 0 870.2 854.4" style="enable-background:new 0 0 870.2 854.4;" xml:space="preserve">
<style type="text/css">
	.str0{fill:#565656;}
	.str1{fill:url(#SVGID_1_);}
	.str2{fill:#3D3D3D;}
	.str3{fill:url(#SVGID_2_);}
	.str4{fill:url(#SVGID_3_);}
	.str5{fill:url(#SVGID_4_);}
	.str6{fill:url(#SVGID_5_);}
	.str7{fill:#E50000;}
	.str8{fill:#C1C1C1;}
	.str9{opacity:0.57;}
	.str10{opacity:0.57;fill:#959595;enable-background:new    ;}
	.str11{fill:#FFFFFF;}
	.str12{opacity:0.61;fill:#C1C1C1;enable-background:new    ;}
	.str13{opacity:0.57;fill:#C1C1C1;enable-background:new    ;}
	.str14{fill:url(#SVGID_6_);}
</style>
<path class="st0" d="M421.4,106.5v194.7c0,0,26.6,86.1,60.1,0V106.5H421.4z"/>
<polygon class="st0" points="429.7,320.6 393.3,419.6 432.3,325.1 "/>
<polygon class="st0" points="472,318.8 508.5,417.9 469.4,323.3 "/>
<radialGradient id="SVGID_1_" cx="451.4692" cy="0.5996" r="68.5378" gradientTransform="matrix(1 0 0 1 0 262.254)" gradientUnits="userSpaceOnUse">
	<stop  offset="0" style="stop-color:#EEEEEE"/>
	<stop  offset="0.3026" style="stop-color:#FFFFFF"/>
	<stop  offset="0.4923" style="stop-color:#FFFFFF"/>
	<stop  offset="1" style="stop-color:#000000"/>
</radialGradient>
<path class="str1" d="M424.2,197.1l0.9,104.7c0,0,28.2,60.1,52.3,0l1.3-104.7H424.2z"/>
<polygon class="str2" points="475.4,78.5 427.3,78.5 407,106.5 495.9,106.5 "/>
<path class="st0" d="M502.4,106.5H399.8c-6.6,0-12,5.4-12,12V185c0,6.6,5.4,12,12,12h102.6c6.6,0,12-5.4,12-12v-66.5
	C514.4,111.9,509,106.5,502.4,106.5z"/>
<radialGradient id="SVGID_2_" cx="450.2192" cy="-73.226" r="72.4909" gradientTransform="matrix(1 0 0 1 0 262.254)" gradientUnits="userSpaceOnUse">
	<stop  offset="0" style="stop-color:#EEEEEE"/>
	<stop  offset="0.3026" style="stop-color:#FFFFFF"/>
	<stop  offset="0.4923" style="stop-color:#FFFFFF"/>
	<stop  offset="1" style="stop-color:#000000"/>
</radialGradient>
<path class="str3" d="M519.4,180.9H386c-5.8,0-10.6,4.8-10.6,10.6l0,0c0,3.1,2.5,5.6,5.6,5.6h133.4c5.8,0,10.6-4.8,10.6-10.6l0,0
	C525,183.4,522.5,180.9,519.4,180.9z"/>
<radialGradient id="SVGID_3_" cx="451.1191" cy="-120.4786" r="72.4584" gradientTransform="matrix(1 0 0 1 0 262.254)" gradientUnits="userSpaceOnUse">
	<stop  offset="0" style="stop-color:#EEEEEE"/>
	<stop  offset="0.3026" style="stop-color:#FFFFFF"/>
	<stop  offset="0.4923" style="stop-color:#FFFFFF"/>
	<stop  offset="1" style="stop-color:#000000"/>
</radialGradient>
<path class="str4" d="M520.3,133.6H386.9c-5.8,0-10.6,4.8-10.6,10.6l0,0c0,3.1,2.5,5.6,5.6,5.6h133.4c5.8,0,10.6-4.8,10.6-10.6l0,0
	C525.9,136.1,523.4,133.6,520.3,133.6z"/>
<radialGradient id="SVGID_4_" cx="450.2192" cy="-95.906" r="72.7894" gradientTransform="matrix(1 0 0 1 0 262.254)" gradientUnits="userSpaceOnUse">
	<stop  offset="0" style="stop-color:#EEEEEE"/>
	<stop  offset="0.3026" style="stop-color:#FFFFFF"/>
	<stop  offset="0.4923" style="stop-color:#FFFFFF"/>
	<stop  offset="1" style="stop-color:#000000"/>
</radialGradient>
<path class="str5" d="M514.4,155.7H386c-5.8,0-10.6,4.8-10.6,10.6l0,0c0,5.8,4.8,10.6,10.6,10.6h128.4c5.8,0,10.6-4.8,10.6-10.6l0,0
	C525,160.5,520.3,155.7,514.4,155.7z"/>
<radialGradient id="SVGID_5_" cx="450.2192" cy="-145.0485" r="72.7897" gradientTransform="matrix(1 0 0 1 0 262.254)" gradientUnits="userSpaceOnUse">
	<stop  offset="0" style="stop-color:#EEEEEE"/>
	<stop  offset="0.3026" style="stop-color:#FFFFFF"/>
	<stop  offset="0.4923" style="stop-color:#FFFFFF"/>
	<stop  offset="1" style="stop-color:#000000"/>
</radialGradient>
<path class="str5" d="M514.4,106.5H386c-5.8,0-10.6,4.8-10.6,10.6l0,0c0,5.8,4.8,10.6,10.6,10.6h128.4c5.8,0,10.6-4.8,10.6-10.6l0,0
	C525,111.3,520.3,106.5,514.4,106.5z"/>
<polygon class="str7" points="416.3,93.7 486.6,93.7 475.4,78.5 427.3,78.5 "/>
<path class="str8" d="M310,269.9"/>
<g class="str9">
	<g>
		<path class="str8" d="M387.8,197.1c0,0,5.4,69.3-39.4,128.8c0,0-60.1,74.3-15.1,164.7c0,0,48.1,85.8,152.8,62.2
			c0,0,90.8-22.1,96.9-117.3c0,0,8.5-50.3-26.7-102.6c0,0-50.2-69.5-41.9-135.7L387.8,197.1z"/>
	</g>
</g>
<path class="str10" d="M396.3,197.1c0,0,4.7,67.1-34.4,124.7c0,0-52.4,72-13.2,159.5c0,0,41.9,83.1,133.4,60.2
	c0,0,79.2-21.4,84.6-113.6c0,0,7.4-48.7-23.3-99.4c0,0-43.9-67.3-36.6-131.4L396.3,197.1z"/>
<path class="str11" d="M393.3,419.6c0,0,13.3,11.9,29.4,5.8c16.1-6.1,16.6-11,31.8-5.3c15.3,5.7,27.3,0.7,27.3,0.7s15.3-5.9,26.7-2.9
	c0,0-12.6-4.5-29.7,1.8c0,0-11.3,5.3-29.4-3.3c0,0-11.6-2.6-28.4,6.4C421,422.7,408.6,429.4,393.3,419.6z"/>
<path class="str12" d="M386.9,522.8c0,0-82.9-45.9-40.7-173.3C346.2,349.4,331.3,471.6,386.9,522.8z"/>
<path class="str8" d="M550.5,459.4c0.7,12.5,62.6-47.5-30.8-166.6C526.8,295.9,590.5,394.3,550.5,459.4z"/>
<path class="str13" d="M368.2,364.5c0,0,94.5-26.4,162.4,0c0,0,33.9,9-0.9-34.4c-34.8-43.4-161.5,13.7-161.5,13.7
	S341.4,364.9,368.2,364.5z"/>
<radialGradient id="SVGID_6_" cx="327.0315" cy="494.2997" r="456.0416" gradientTransform="matrix(0.8244 0 0 -0.8093 175.9001 841.4257)" gradientUnits="userSpaceOnUse">
	<stop  offset="0.1081" style="stop-color:#FFFFFF;stop-opacity:0.9"/>
	<stop  offset="0.2027" style="stop-color:#DCDCDB"/>
	<stop  offset="0.4027" style="stop-color:#EDEDEC;stop-opacity:0.5"/>
	<stop  offset="0.473" style="stop-color:#E9E9E8;stop-opacity:0.5"/>
	<stop  offset="0.8595" style="stop-color:#868684;stop-opacity:0.1"/>
	<stop  offset="1" style="stop-color:#1D1D1B;stop-opacity:0"/>
</radialGradient>
<ellipse class="str14" cx="435.1" cy="427.2" rx="435.1" ry="427.2"/>
</svg>
